<svg width="414" height="245" viewBox="0 0 414 245" fill="none" xmlns="http://www.w3.org/2000/svg">
<path d="M14.902 244.308C15.132 243.418 15.247 242.503 15.245 241.584L15.231 240.995V241.023C15.196 236.977 13.688 233.082 10.991 230.066C8.29301 227.051 4.58901 225.122 0.572014 224.639H0.489014V197.756C4.52201 197.292 8.24501 195.37 10.96 192.353C13.675 189.336 15.193 185.431 15.231 181.372C15.196 177.326 13.688 173.432 10.991 170.416C8.29301 167.401 4.58901 165.471 0.572014 164.988H0.489014V138.106C4.52101 137.642 8.24501 135.72 10.96 132.703C13.674 129.686 15.193 125.781 15.231 121.722C15.196 117.676 13.688 113.781 10.991 110.766C8.29301 107.751 4.58901 105.821 0.572014 105.338H0.489014V78.4559C4.52201 77.9909 8.24501 76.0699 10.96 73.0529C13.674 70.0349 15.193 66.1299 15.231 62.0719C15.196 58.0259 13.688 54.1309 10.991 51.1159C8.29301 48.0999 4.58901 46.1709 0.572014 45.6879H0.489014V18.8059C4.52201 18.3409 8.24501 16.4199 10.96 13.4019C13.674 10.3849 15.193 6.47992 15.231 2.42192C15.231 1.76492 14.916 1.12093 14.902 0.450928H395.853C395.662 0.915928 395.539 1.47693 395.539 2.05193L395.552 2.44893V2.42192V2.58592C395.551 4.71792 395.97 6.82993 396.785 8.79993C397.6 10.7699 398.796 12.5609 400.303 14.0679C401.811 15.5759 403.601 16.7719 405.572 17.5869C407.542 18.4019 409.654 18.8209 411.786 18.8189H411.95C412.607 18.8189 412.936 18.4909 413.593 18.4909V45.3999C413.172 45.1769 412.701 45.0629 412.224 45.0719L411.936 45.0859C409.578 45.1799 407.264 45.7589 405.139 46.7859C403.014 47.8139 401.124 49.2679 399.585 51.0579C398.047 52.8479 396.894 54.9349 396.198 57.1909C395.501 59.4459 395.277 61.8199 395.539 64.1659V64.0839V64.2479C395.537 66.3799 395.956 68.4919 396.771 70.4619C397.586 72.4329 398.782 74.2229 400.29 75.7309C401.798 77.2379 403.588 78.4339 405.558 79.2489C407.528 80.0639 409.64 80.4829 411.772 80.4819H411.936C412.593 80.4819 412.922 80.1529 413.579 80.1529V107.035C413.158 106.811 412.687 106.698 412.21 106.707L411.923 106.721C407.574 106.721 403.403 108.448 400.328 111.523C397.253 114.599 395.525 118.769 395.525 123.118C395.525 127.467 397.253 131.638 400.328 134.713C403.403 137.788 407.574 139.516 411.923 139.516C412.58 139.516 412.908 139.187 413.565 139.187V166.07C413.136 165.841 412.655 165.728 412.169 165.741L411.909 165.755C409.756 165.755 407.623 166.179 405.634 167.003C403.644 167.827 401.837 169.035 400.314 170.558C398.791 172.08 397.584 173.888 396.76 175.877C395.935 177.867 395.511 179.999 395.511 182.153C395.511 184.306 395.935 186.438 396.76 188.428C397.584 190.417 398.791 192.225 400.314 193.747C401.837 195.27 403.644 196.478 405.634 197.302C407.623 198.126 409.756 198.55 411.909 198.55C412.566 198.55 412.894 198.222 413.551 198.222V225.104C413.131 224.88 412.659 224.767 412.183 224.775L411.895 224.789H411.731C409.599 224.788 407.487 225.206 405.517 226.022C403.547 226.837 401.756 228.033 400.249 229.54C398.741 231.048 397.545 232.838 396.73 234.808C395.915 236.779 395.496 238.89 395.498 241.023V241.159L395.484 241.693C395.482 242.644 395.601 243.592 395.84 244.513L395.826 244.444L14.902 244.308Z" fill="#FFFFFF"/>
</svg>
